<svg width="24" height="24" xmlns="http://www.w3.org/2000/svg">

 <g>
  <title>background</title>
  <rect fill="none" id="canvas_background" height="26" width="26" y="-1" x="-1"/>
 </g>
 <g>
  <title>Layer 1</title>
  <path fill="#e0e0e0" stroke="null" id="svg_1" d="m19.861938,15.527999c-1.160541,0 -2.204392,0.48583 -2.945537,1.261215l-8.659869,-4.218947c0.029782,-0.198219 0.050288,-0.398866 0.050288,-0.605344c0,-0.201134 -0.01953,-0.397409 -0.047847,-0.590283l8.647174,-4.172794c0.741633,0.7817 1.790367,1.272389 2.95579,1.272389c2.246869,0 4.068483,-1.812632 4.068483,-4.048421c0,-2.236275 -1.821614,-4.048421 -4.068483,-4.048421s-4.068483,1.812146 -4.068483,4.048421c0,0.201134 0.01953,0.396923 0.047847,0.590283l-8.647174,4.172794c-0.741633,-0.7817 -1.789879,-1.272389 -2.95579,-1.272389c-2.247357,0 -4.068483,1.812632 -4.068483,4.048421c0,2.236275 1.821126,4.048421 4.068483,4.048421c1.160541,0 2.204392,-0.48583 2.945537,-1.261215l8.659869,4.218947c-0.029782,0.197733 -0.050288,0.398866 -0.050288,0.605344c0,2.236275 1.821614,4.048421 4.068483,4.048421s4.068483,-1.812146 4.068483,-4.048421c0,-2.236275 -1.821614,-4.048421 -4.068483,-4.048421z"/>
 </g>
</svg>